<?xml version="1.0" encoding="UTF-8" standalone="no"?>
<!-- Created with Inkscape (http://www.inkscape.org/) -->

<svg
   width="24"
   height="24"
   viewBox="0 0 6.3499998 6.3500001"
   version="1.1"
   id="svg1"
   xmlns="http://www.w3.org/2000/svg"
   xmlns:svg="http://www.w3.org/2000/svg">
  <defs
     id="defs1" />
  <g
     id="layer2">
    <path
       id="path2"
       style="display:inline;fill:#ffffff;fill-opacity:1;fill-rule:nonzero;stroke:none;stroke-width:0.447751"
       d="M 8.0801719,0 C 7.0615521,0 6.2344687,0.82749939 6.2344687,1.8457031 c 0,1.0195265 0.8270834,1.8476561 1.8457032,1.8476561 1.0199799,0 1.8457032,-0.8281296 1.8457032,-1.8476561 C 9.9258751,0.82749939 9.1001518,0 8.0801719,0 Z M 7.3848594,6.5800782 v 0.7988281 c 0,2.4254339 -0.2084548,2.6909677 -1.8632814,4.2285157 L 4.5743123,12.49414 C 2.7116874,14.238088 1.4102498,15.598629 1.4102498,18.527343 1.4102498,21.397401 3.3905396,24 7.8868124,24 11.880295,24 14.86528,21.427903 14.746187,16.8125 h -1.449218 c 0.08957,3.698415 -2.098112,5.884765 -5.2910162,5.884765 -3.1946423,0 -5.0292967,-1.566543 -5.0292967,-4.345703 0,-1.894411 0.6809695,-3.28253 2.1894531,-4.585937 l 1.2421874,-1.09375 C 8.5073687,10.83839 8.8028281,10.366085 8.8028281,7.3496092 v -0.769531 z" />
  </g>
</svg>
